<?xml version="1.0" standalone="no"?>
<!DOCTYPE svg PUBLIC "-//W3C//DTD SVG 20010904//EN"
 "http://www.w3.org/TR/2001/REC-SVG-20010904/DTD/svg10.dtd">
<svg version="1.0" xmlns="http://www.w3.org/2000/svg"
 width="3903.000000pt" height="2000.000000pt" viewBox="0 0 3903.000000 2000.000000"
 preserveAspectRatio="xMidYMid meet">

<g transform="translate(0.000000,2000.000000) scale(0.100000,-0.100000)"
fill="#000000" stroke="none">
<path d="M0 15560 l0 -4440 730 0 730 0 0 -245 0 -245 -245 0 -245 0 0 -245 0
-245 -35 0 c-33 0 -35 -2 -35 -35 l0 -35 -240 0 -240 0 0 280 0 280 -210 0
-210 0 0 -800 0 -800 210 0 210 0 0 -280 0 -280 -210 0 -210 0 0 -240 0 -240
210 0 210 0 0 240 0 240 240 0 240 0 0 35 c0 33 2 35 35 35 l35 0 0 245 0 245
520 0 520 0 0 520 0 520 520 0 520 0 0 -240 0 -240 525 0 525 0 0 -280 0 -280
795 0 795 0 0 520 0 520 525 0 525 0 0 -240 0 -240 35 0 c33 0 35 -2 35 -35
l0 -35 205 0 205 0 0 35 c0 33 2 35 35 35 l35 0 0 -280 0 -280 -520 0 -520 0
0 -280 0 -280 485 0 485 0 0 35 c0 33 2 35 35 35 l35 0 0 245 0 245 245 0 245
0 0 -245 0 -245 555 0 555 0 0 490 0 490 240 0 240 0 0 275 0 275 280 0 280 0
0 -520 0 -520 520 0 520 0 0 245 0 245 280 0 280 0 0 -245 0 -245 240 0 240 0
0 245 0 245 280 0 280 0 0 -245 0 -245 520 0 520 0 0 245 0 245 520 0 520 0 0
-490 0 -490 35 0 c33 0 35 -2 35 -35 l0 -35 210 0 210 0 0 35 c0 33 2 35 35
35 l35 0 0 490 0 490 240 0 240 0 0 -245 0 -245 525 0 525 0 0 35 c0 33 2 35
35 35 l35 0 0 210 0 210 240 0 240 0 0 -525 0 -525 280 0 280 0 0 -520 0 -520
240 0 240 0 0 520 0 520 -240 0 -240 0 0 560 0 560 520 0 520 0 0 485 0 485
275 0 275 0 0 -245 0 -245 245 0 245 0 0 -275 0 -275 -275 0 -275 0 0 -245 0
-245 -245 0 -245 0 0 -280 0 -280 275 0 275 0 0 -240 0 -240 245 0 245 0 0
520 0 520 280 0 280 0 0 -245 0 -245 240 0 240 0 0 245 0 245 555 0 555 0 0
-520 0 -520 490 0 490 0 0 275 0 275 -245 0 -245 0 0 525 0 525 -765 0 -765 0
0 -35 c0 -33 -2 -35 -35 -35 l-35 0 0 275 0 275 280 0 280 0 0 280 0 280 275
0 275 0 0 -280 0 -280 245 0 245 0 0 245 0 245 280 0 280 0 0 -520 0 -520 240
0 240 0 0 -245 0 -245 280 0 280 0 0 -280 0 -280 -245 0 -245 0 0 -240 0 -240
245 0 245 0 0 240 0 240 275 0 275 0 0 280 0 280 490 0 490 0 0 -35 c0 -32 2
-35 30 -35 l30 0 0 -245 0 -245 1045 0 1045 0 0 800 0 800 275 0 275 0 0 -275
0 -275 245 0 245 0 0 -245 0 -245 -245 0 -245 0 0 -245 0 -245 525 0 525 0 0
490 0 490 1315 0 1315 0 0 275 0 275 525 0 525 0 0 -520 0 -520 -245 0 -245 0
0 -280 0 -280 485 0 485 0 0 35 c0 33 2 35 35 35 l35 0 0 1010 0 1010 245 0
245 0 0 -485 0 -485 35 0 c33 0 35 -2 35 -35 l0 -35 240 0 240 0 0 -490 0
-490 280 0 280 0 0 245 0 245 245 0 245 0 0 -520 0 -520 240 0 240 0 0 520 0
520 -240 0 -240 0 0 520 0 520 275 0 275 0 0 -240 0 -240 520 0 520 0 0 240 0
240 820 0 820 0 0 245 c0 238 -1 245 -20 245 -20 0 -20 7 -20 280 0 273 0 280
20 280 20 0 20 7 20 4440 l0 4440 -19500 0 -19500 0 0 -4440z m19930 -3645 l0
-245 -245 0 -245 0 0 245 0 245 245 0 245 0 0 -245z m-14240 -490 l0 -245
-240 0 -240 0 0 245 0 245 240 0 240 0 0 -245z m8410 0 l0 -245 -485 0 -485 0
0 245 0 245 485 0 485 0 0 -245z m10550 -35 l0 -210 -240 0 -240 0 0 210 0
210 240 0 240 0 0 -210z m-21110 -515 l0 -245 -245 0 -245 0 0 245 0 245 245
0 245 0 0 -245z m1040 0 l0 -245 -240 0 -240 0 0 -280 0 -280 -245 0 -245 0 0
280 0 280 245 0 245 0 0 245 0 245 240 0 240 0 0 -245z m3200 -520 l0 -765 35
0 c33 0 35 -2 35 -35 l0 -35 205 0 205 0 0 35 c0 33 2 35 35 35 l35 0 0 240 0
240 245 0 245 0 0 35 c0 33 2 35 35 35 l35 0 0 490 0 490 240 0 240 0 0 -525
0 -525 -240 0 -240 0 0 -275 0 -275 -35 0 c-33 0 -35 2 -35 35 l0 35 -245 0
-245 0 0 -280 0 -280 -275 0 -275 0 0 280 0 280 -245 0 -245 0 0 485 0 485
-35 0 c-33 0 -35 2 -35 35 l0 35 -240 0 -240 0 0 245 0 245 520 0 520 0 0
-765z m3680 520 l0 -245 -245 0 -245 0 0 245 0 245 245 0 245 0 0 -245z m6320
-280 l0 -525 -210 0 -210 0 0 525 0 525 210 0 210 0 0 -525z m3750 280 l0
-245 -245 0 -245 0 0 -35 c0 -33 -2 -35 -35 -35 l-35 0 0 -245 0 -245 -520 0
-520 0 0 280 0 280 520 0 520 0 0 245 0 245 280 0 280 0 0 -245z m6320 0 l0
-245 -245 0 -245 0 0 245 0 245 245 0 245 0 0 -245z m5280 0 l0 -245 -245 0
-245 0 0 245 0 245 245 0 245 0 0 -245z m4720 0 l0 -245 -245 0 -245 0 0 245
0 245 245 0 245 0 0 -245z m-25910 -280 c0 -33 2 -35 35 -35 l35 0 0 -245 0
-245 -240 0 -240 0 0 280 0 280 205 0 205 0 0 -35z m15350 -245 l0 -280 -240
0 -240 0 0 -240 0 -240 -245 0 -245 0 0 240 0 240 245 0 245 0 0 280 0 280
240 0 240 0 0 -280z m-14230 -275 l0 -485 -245 0 -245 0 0 485 0 485 245 0
245 0 0 -485z m2630 240 l0 -245 -1040 0 -1040 0 0 245 0 245 1040 0 1040 0 0
-245z m8960 -240 l0 -485 -240 0 -240 0 0 240 0 240 -245 0 -245 0 0 245 0
245 485 0 485 0 0 -485z m1050 0 l0 -485 -245 0 -245 0 0 485 0 485 245 0 245
0 0 -485z m3750 -35 l0 -520 -35 0 c-33 0 -35 2 -35 35 l0 35 -210 0 -210 0 0
-35 c0 -33 -2 -35 -35 -35 l-35 0 0 275 0 275 -245 0 -245 0 0 245 0 245 525
0 525 0 0 -520z m1040 275 l0 -245 -245 0 -245 0 0 245 0 245 245 0 245 0 0
-245z m1040 0 l0 -245 -245 0 -245 0 0 245 0 245 245 0 245 0 0 -245z m-14720
-520 l0 -275 -35 0 c-33 0 -35 2 -35 35 l0 35 -490 0 -490 0 0 -35 c0 -33 -2
-35 -35 -35 l-35 0 0 205 0 205 35 0 35 0 0 70 0 70 525 0 525 0 0 -275z
m18400 35 l0 -240 -245 0 -245 0 0 240 0 240 245 0 245 0 0 -240z m-34240
-555 l0 -245 -275 0 -275 0 0 245 0 245 275 0 275 0 0 -245z m20000 0 l0 -245
-240 0 -240 0 0 245 0 245 240 0 240 0 0 -245z"/>
<path d="M2570 9310 l0 -280 240 0 240 0 0 245 0 245 -30 0 c-28 0 -30 3 -30
35 l0 35 -210 0 -210 0 0 -280z"/>
<path d="M38400 9275 l0 -245 245 0 245 0 0 245 0 245 -245 0 -245 0 0 -245z"/>
<path d="M31040 8750 l0 -280 245 0 245 0 0 -240 0 -240 275 0 275 0 0 485 0
485 -30 0 c-28 0 -30 3 -30 35 l0 35 -490 0 -490 0 0 -280z"/>
<path d="M37360 8785 l0 -245 245 0 245 0 0 245 0 245 -245 0 -245 0 0 -245z"/>
<path d="M4650 7950 l0 -520 245 0 245 0 0 520 0 520 -245 0 -245 0 0 -520z"/>
<path d="M10420 8230 l0 -240 520 0 520 0 0 240 0 240 -520 0 -520 0 0 -240z"/>
<path d="M33680 8230 l0 -240 245 0 245 0 0 240 0 240 -245 0 -245 0 0 -240z"/>
<path d="M15210 7710 l0 -280 240 0 240 0 0 280 0 280 -240 0 -240 0 0 -280z"/>
<path d="M21530 7710 l0 -280 240 0 240 0 0 35 c0 33 2 35 35 35 l35 0 0 210
0 210 -35 0 c-33 0 -35 2 -35 35 l0 35 -240 0 -240 0 0 -280z"/>
<path d="M36810 7710 l0 -210 35 0 c33 0 35 -2 35 -35 l0 -35 205 0 205 0 0
35 c0 33 2 35 35 35 l35 0 0 210 0 210 -275 0 -275 0 0 -210z"/>
<path d="M6250 7190 l0 -240 245 0 245 0 0 240 0 240 -245 0 -245 0 0 -240z"/>
<path d="M7290 7190 l0 -240 245 0 245 0 0 240 0 240 -245 0 -245 0 0 -240z"/>
<path d="M13610 7190 l0 -240 245 0 245 0 0 240 0 240 -245 0 -245 0 0 -240z"/>
<path d="M16250 7155 l0 -275 245 0 245 0 0 275 0 275 -245 0 -245 0 0 -275z"/>
<path d="M19440 7190 l0 -240 245 0 245 0 0 240 0 240 -245 0 -245 0 0 -240z"/>
<path d="M26810 7190 l0 -240 240 0 240 0 0 240 0 240 -240 0 -240 0 0 -240z"/>
<path d="M38400 7190 l0 -240 245 0 245 0 0 240 0 240 -245 0 -245 0 0 -240z"/>
<path d="M2010 6635 l0 -245 245 0 245 0 0 245 0 245 -245 0 -245 0 0 -245z"/>
<path d="M35280 6110 l0 -280 210 0 210 0 0 35 c0 33 2 35 35 35 l35 0 0 245
0 245 -245 0 -245 0 0 -280z"/>
<path d="M36320 6145 l0 -245 245 0 245 0 0 245 0 245 -245 0 -245 0 0 -245z"/>
<path d="M19440 5590 l0 -240 245 0 245 0 0 240 0 240 -245 0 -245 0 0 -240z"/>
</g>
</svg>
